<svg xmlns="http://www.w3.org/2000/svg" width="460.0625" height="100" viewBox="0 0 7361 2200"><g transform="translate(0,1200) scale(1,-1)"><g transform="translate(0,0)"><path d="M789 50Q461 -1 331 -101Q282 -140 282 -189Q282 -229 316 -256Q352 -286 413 -287Q486 -289 582 -234Q643 -200 704 -124Q725 -98 751.5 -60.5Q778 -23 810 30Q827 35 839.5 39Q852 43 860 44Q866 45 873 51Q880 57 889 68Q908 93 908 102Q908 105 905 112.5Q902 120 897.5 128Q893 136 887 144.5Q881 153 876 158Q911 236 942 303Q973 370 1000 430Q1011 441 1019 449Q1027 457 1035 462Q1045 472 1036 493Q1034 495 1032 495Q1013 495 1003 480Q992 463 982.5 449Q973 435 965 424L963 419Q914 368 844.5 312Q775 256 684 193Q487 57 367 24Q343 18 334 18Q320 18 320 32Q320 38 322.5 47.5Q325 57 331 69Q349 113 432 233Q483 305 516 355.5Q549 406 566 435Q601 492 617.5 537.5Q634 583 634 617Q634 668 584 716Q535 763 476 762Q355 759 213 664Q78 574 40 474Q29 448 29 411Q29 376 40 353Q58 310 125 298Q144 295 144 301Q144 307 130 308Q121 309 110.5 313.5Q100 318 89 326Q63 343 55 361Q47 379 47 402Q47 430 63 468Q109 568 254 658Q325 701 384.5 721.5Q444 742 493 737Q603 729 603 640Q603 567 536 452Q523 431 490 380Q457 329 403 249Q321 128 304 73Q300 64 300 53Q300 40 304.5 28.5Q309 17 316.5 9Q324 1 332.5 -3Q341 -7 350 -4Q412 13 491 54Q570 95 667 161Q816 263 943 375Q948 380 949 376Q950 375 947 365Q928 324 908.5 283.5Q889 243 869 202Q808 75 789 50ZM776 24Q744 -26 722.5 -58Q701 -90 690 -106Q634 -178 573 -219Q494 -271 411 -272Q297 -274 297 -199Q297 -154 343 -118Q415 -61 574 -19Q628 -4 678 6.5Q728 17 776 24ZM870 147Q889 121 888 100Q887 80 866 68Q852 64 842 61Q832 58 824 57Q839 86 850.5 108Q862 130 870 147Z"/></g><g transform="translate(894,0)"><path d="M64 -17Q152 -4 269 97Q329 148 358.5 191.5Q388 235 391 273Q391 275 390 278Q389 281 388 284Q386 287 388 290Q397 302 428 302Q443 302 443 308Q443 310 428 312Q386 313 353.5 314Q321 315 298 316Q296 317 294.5 318Q293 319 291 320Q262 339 246 338Q224 337 202 316Q195 312 191 312Q190 312 153 311Q130 310 127 305Q124 300 124 297Q124 291 133 284.5Q142 278 151 273Q157 271 153 264Q21 102 19 19Q19 11 23.5 4Q28 -3 34.5 -8Q41 -13 49 -15.5Q57 -18 64 -17ZM50 36Q108 174 215 273Q230 283 232 282Q250 289 271 291.5Q292 294 316 291Q361 286 354 256Q339 183 239 94Q144 7 76 -4Q44 -10 44 14Q44 25 50 36Z"/></g><g transform="translate(1223,0)"><path d="M443 297Q446 302 445.5 311.5Q445 321 441 329.5Q437 338 430 341Q423 344 414 335Q384 308 345 267Q306 226 263.5 183Q221 140 177.5 100.5Q134 61 95 37Q70 23 57.5 34.5Q45 46 57 87Q64 114 82.5 150Q101 186 124 224Q147 262 172.5 299Q198 336 221 364Q230 376 229 382.5Q228 389 222 391Q216 393 207.5 390.5Q199 388 194 382Q181 367 163.5 343.5Q146 320 126 291Q106 262 86.5 229.5Q67 197 50.5 165.5Q34 134 23.5 104Q13 74 11 51Q9 26 26 8.5Q43 -9 70 0Q86 5 119.5 32.5Q153 60 192 95.5Q231 131 269.5 167.5Q308 204 332 228Q350 246 356 236.5Q362 227 356 212Q349 195 340.5 175.5Q332 156 325 136Q318 116 313.5 95Q309 74 309 55Q309 45 314.5 35.5Q320 26 327.5 18.5Q335 11 344 7Q353 3 359 5Q372 10 386.5 19.5Q401 29 411 40Q423 51 421.5 59.5Q420 68 404 57Q398 53 388 48.5Q378 44 371 42Q364 40 356.5 38Q349 36 344 37.5Q339 39 336.5 47Q334 55 337 73Q340 93 352 123Q364 153 379.5 184.5Q395 216 412 246Q429 276 443 297Z"/></g><g transform="translate(1668,0)"><path d="M-19 -13Q-6 -5 4 -0.5Q14 4 22 7Q30 11 30 14Q146 204 294 286Q328 304 348 295Q351 293 356 295.5Q361 298 365.5 302.5Q370 307 373.5 312.5Q377 318 377 321Q377 322 376 323Q361 330 330 329Q294 314 230 262Q168 212 129 165Q126 161 117 157Q106 153 106 158Q106 162 109 168Q120 190 142.5 222.5Q165 255 197 299Q202 304 198 310Q196 315 190 315Q187 315 186 313Q123 275 111 271Q110 268 111 264Q114 255 114 253Q114 243 108 228Q73 147 -24 -3Q-27 -8 -25 -13Q-24 -19 -19 -13Z"/></g><g transform="translate(1939,0)"><path d=""/></g><g transform="translate(2268,0)"><path d="M172 -556Q239 -556 314.5 -516Q390 -476 477 -398Q648 -243 668 -111Q670 -88 640 -43Q611 0 579 0Q571 0 567 -1Q541 -12 531.5 -18Q522 -24 517 -32Q515 -41 525 -41Q530 -41 541 -34Q552 -27 567 -25Q634 -14 634 -108Q626 -162 590.5 -222Q555 -282 489 -351Q425 -420 363 -463Q301 -506 238 -526Q195 -539 160 -539Q37 -539 37 -365Q37 -353 37 -341Q37 -330 38 -317Q46 -224 86 -107.5Q126 9 195 152Q240 242 287 319Q334 396 387 474Q395 487 412 490Q506 495 579.5 499.5Q653 504 710 506Q719 507 724.5 515.5Q730 524 730 526Q727 529 718 529Q710 529 677.5 529.5Q645 530 586 530L441 530Q418 530 434 553Q651 851 745 870Q755 873 755 877Q755 886 744 886Q732 886 721.5 881.5Q711 877 687 869Q637 850 631 843Q562 763 499 688.5Q436 614 388 539Q386 536 389 533Q392 530 388 530Q340 530 313.5 527Q287 524 284 518Q276 501 312 487Q330 477 330 459Q330 442 318 429Q267 355 216 262Q165 169 114 53Q-1 -210 -1 -351Q-1 -394 6 -430.5Q13 -467 40 -496Q92 -556 172 -556Z"/></g><g transform="translate(2535,0)"><path d="M465 308Q470 315 466.5 317Q463 319 458 312Q446 301 424.5 290Q403 279 382 277Q366 275 343.5 274Q321 273 295 272.5Q269 272 240 272Q212 272 185 272Q235 280 274 299Q313 318 328 346Q337 361 335.5 379Q334 397 325.5 411.5Q317 426 302 433.5Q287 441 268 435Q233 421 189.5 386.5Q146 352 106.5 304.5Q67 257 39.5 202Q12 147 9 92Q8 72 18 54.5Q28 37 43 24Q58 11 76 4.5Q94 -2 109 1Q127 4 146.5 11.5Q166 19 184 28Q202 37 217 46.5Q232 56 243 64Q251 69 247 72.5Q243 76 235 71Q208 56 170.5 42Q133 28 100 23Q87 22 74.5 24.5Q62 27 52.5 34.5Q43 42 37.5 56Q32 70 33 92Q34 116 42 138.5Q50 161 61 182Q72 203 84.5 221.5Q97 240 108 255Q138 255 178 255Q218 255 258 256Q298 257 331.5 258Q365 259 382 262Q410 266 432.5 281.5Q455 297 465 308ZM304 355Q292 337 271.5 322Q251 307 226 295.5Q201 284 173 278Q145 272 119 272Q153 309 191 343.5Q229 378 266 399Q281 407 292.5 407.5Q304 408 310 401.5Q316 395 315 383Q314 371 304 355Z"/></g><g transform="translate(2883,0)"><path d="M392 298Q400 302 402 308.5Q404 315 401.5 320Q399 325 394 328Q389 331 382 327Q362 317 328.5 295Q295 273 258 247Q221 221 187 195.5Q153 170 134 155Q129 169 125.5 189.5Q122 210 118.5 231.5Q115 253 112 274.5Q109 296 106 312Q105 321 101 322.5Q97 324 93 321.5Q89 319 86 313.5Q83 308 84 302Q85 287 88 265Q91 243 95 220Q99 197 103.5 174.5Q108 152 112 137Q88 117 59 92.5Q30 68 0 40Q-30 12 -59.5 -17.5Q-89 -47 -114 -76Q-137 -105 -157 -133.5Q-177 -162 -187.5 -190.5Q-198 -219 -196.5 -247Q-195 -275 -177 -301Q-165 -318 -146.5 -330Q-128 -342 -113 -345Q-105 -348 -102.5 -344Q-100 -340 -108 -337Q-125 -333 -141.5 -323Q-158 -313 -169 -293Q-185 -268 -181.5 -239Q-178 -210 -164 -182Q-150 -154 -131 -129Q-112 -104 -98 -88Q-70 -56 -40 -26.5Q-10 3 18.5 29Q47 55 73 76Q99 97 120 112Q126 93 136 67.5Q146 42 157.5 16.5Q169 -9 181 -31Q193 -53 202 -64Q213 -75 218.5 -73Q224 -71 212 -56Q201 -43 190 -18.5Q179 6 169.5 33Q160 60 152 86Q144 112 141 128Q162 144 196 169Q230 194 266 219.5Q302 245 336 267Q370 289 392 298Z"/></g><g transform="translate(3077,0)"><path d="M172 -556Q239 -556 314.5 -516Q390 -476 477 -398Q648 -243 668 -111Q670 -88 640 -43Q611 0 579 0Q571 0 567 -1Q541 -12 531.5 -18Q522 -24 517 -32Q515 -41 525 -41Q530 -41 541 -34Q552 -27 567 -25Q634 -14 634 -108Q626 -162 590.5 -222Q555 -282 489 -351Q425 -420 363 -463Q301 -506 238 -526Q195 -539 160 -539Q37 -539 37 -365Q37 -353 37 -341Q37 -330 38 -317Q46 -224 86 -107.5Q126 9 195 152Q240 242 287 319Q334 396 387 474Q395 487 412 490Q506 495 579.5 499.5Q653 504 710 506Q719 507 724.5 515.5Q730 524 730 526Q727 529 718 529Q710 529 677.5 529.5Q645 530 586 530L441 530Q418 530 434 553Q651 851 745 870Q755 873 755 877Q755 886 744 886Q732 886 721.5 881.5Q711 877 687 869Q637 850 631 843Q562 763 499 688.5Q436 614 388 539Q386 536 389 533Q392 530 388 530Q340 530 313.5 527Q287 524 284 518Q276 501 312 487Q330 477 330 459Q330 442 318 429Q267 355 216 262Q165 169 114 53Q-1 -210 -1 -351Q-1 -394 6 -430.5Q13 -467 40 -496Q92 -556 172 -556Z"/></g><g transform="translate(3834,0)"><path d=""/></g><g transform="translate(4163,0)"><path d="M394 287Q292 288 175 215Q58 141 11 45Q2 28 2 14Q2 -22 38 -22Q49 -22 57 -19Q86 -6 128 19.5Q170 45 227 85Q272 117 302.5 139.5Q333 162 350 178Q346 166 342.5 151.5Q339 137 334 120Q303 9 280 -43Q-20 -100 -294 -209Q-697 -368 -773 -547Q-789 -585 -789 -622Q-789 -740 -668 -835Q-548 -930 -404 -922Q16 -895 311 -54Q369 -41 442.5 -35.5Q516 -30 607 -30Q630 -30 648.5 -30.5Q667 -31 681 -32Q730 -36 730 -72Q730 -116 671 -171Q661 -178 661 -184Q661 -185 663 -185Q669 -185 678 -177Q730 -136 743 -111Q748 -101 748 -89Q748 -76 742 -64Q736 -52 726.5 -41.5Q717 -31 705.5 -24Q694 -17 683 -15Q669 -13 650.5 -11.5Q632 -10 607 -10Q471 -10 318 -37Q349 53 371.5 121Q394 189 410 237Q419 249 421 261Q421 269 414.5 276Q408 283 400 285Q398 287 394 287ZM-749 -574Q-683 -409 -356 -257Q-85 -134 276 -58Q232 -193 176.5 -313Q121 -433 54 -542Q-164 -895 -406 -904Q-545 -910 -656 -825Q-761 -744 -761 -638Q-761 -606 -749 -574ZM333 182Q313 164 282.5 140.5Q252 117 211 88Q109 15 88 15Q64 15 64 47Q64 52 64.5 55Q65 58 66 63Q87 125 163 185Q235 240 308 257Q343 266 354 262Q361 261 361 243Q360 242 360 239Q360 238 360 238Q361 238 361 237Q358 201 333 182Z"/></g><g transform="translate(4550,0)"><path d="M64 -17Q152 -4 269 97Q329 148 358.5 191.5Q388 235 391 273Q391 275 390 278Q389 281 388 284Q386 287 388 290Q397 302 428 302Q443 302 443 308Q443 310 428 312Q386 313 353.5 314Q321 315 298 316Q296 317 294.5 318Q293 319 291 320Q262 339 246 338Q224 337 202 316Q195 312 191 312Q190 312 153 311Q130 310 127 305Q124 300 124 297Q124 291 133 284.5Q142 278 151 273Q157 271 153 264Q21 102 19 19Q19 11 23.5 4Q28 -3 34.5 -8Q41 -13 49 -15.5Q57 -18 64 -17ZM50 36Q108 174 215 273Q230 283 232 282Q250 289 271 291.5Q292 294 316 291Q361 286 354 256Q339 183 239 94Q144 7 76 -4Q44 -10 44 14Q44 25 50 36Z"/></g><g transform="translate(4911,0)"><path d="M465 308Q470 315 466.5 317Q463 319 458 312Q446 301 424.5 290Q403 279 382 277Q366 275 343.5 274Q321 273 295 272.5Q269 272 240 272Q212 272 185 272Q235 280 274 299Q313 318 328 346Q337 361 335.5 379Q334 397 325.5 411.5Q317 426 302 433.5Q287 441 268 435Q233 421 189.5 386.5Q146 352 106.5 304.5Q67 257 39.5 202Q12 147 9 92Q8 72 18 54.5Q28 37 43 24Q58 11 76 4.5Q94 -2 109 1Q127 4 146.5 11.5Q166 19 184 28Q202 37 217 46.5Q232 56 243 64Q251 69 247 72.5Q243 76 235 71Q208 56 170.5 42Q133 28 100 23Q87 22 74.5 24.5Q62 27 52.5 34.5Q43 42 37.5 56Q32 70 33 92Q34 116 42 138.5Q50 161 61 182Q72 203 84.5 221.5Q97 240 108 255Q138 255 178 255Q218 255 258 256Q298 257 331.5 258Q365 259 382 262Q410 266 432.5 281.5Q455 297 465 308ZM304 355Q292 337 271.5 322Q251 307 226 295.5Q201 284 173 278Q145 272 119 272Q153 309 191 343.5Q229 378 266 399Q281 407 292.5 407.5Q304 408 310 401.5Q316 395 315 383Q314 371 304 355Z"/></g><g transform="translate(5182,0)"><path d="M186 106Q173 113 152 143Q133 174 130 194Q123 243 218 308Q293 361 350 375Q355 376 360.5 376.5Q366 377 372 377Q383 377 399 374Q415 371 438 363Q445 361 460.5 371Q476 381 483 391Q487 395 483 404Q478 410 472 410Q416 411 352.5 390.5Q289 370 217 327Q73 243 81 176Q83 162 88.5 149Q94 136 105 122L137 79Q19 -3 2 -24Q-5 -36 8 -37Q13 -39 21.5 -37Q30 -35 44 -33Q53 -36 65 -36Q100 -36 156 -11Q222 17 222 45Q222 52 216.5 63.5Q211 75 198 92Q278 138 351.5 167.5Q425 197 495 211L494 212Q419 199 343 175Q267 151 186 106ZM53 -14Q58 -6 70 4Q82 14 102 28Q135 52 151 62Q174 41 174 25Q174 19 170 14Q165 6 151.5 0Q138 -6 118 -14Q75 -29 57 -25Q45 -23 53 -14Z"/></g><g transform="translate(5676,0)"><path d=""/></g><g transform="translate(6005,0)"><path d="M266 430Q282 429 299 428.5Q316 428 333 428Q723 428 1125 617Q1235 668 1290 741Q1341 807 1341 881Q1341 978 1259 1048Q1173 1120 1045 1120Q968 1120 890 1092Q744 1041 603.5 913.5Q463 786 323 575Q225 554 176 502Q173 498 171 494Q169 490 169 484Q169 470 180 455Q191 440 205 437Q214 435 221.5 434Q229 433 234 432Q162 308 106.5 205.5Q51 103 11 18Q10 15 10 10Q10 -6 18 -6Q21 -6 23 -1Q32 11 34 7Q79 61 163 142Q263 238 319 268Q330 275 339 275Q354 275 354 261Q354 253 350 248Q262 132 243 53Q238 30 261 12Q280 -6 298 -6Q356 -6 486 100L493 107Q492 108 492 108Q492 109 491 110Q490 109 487.5 108Q485 107 482 105Q371 21 322 21Q295 21 295 47Q295 83 344 172Q365 209 384 238.5Q403 268 420 289Q421 290 421 294Q421 302 412 309.5Q403 317 397 316Q362 307 358 302Q325 299 233 226Q195 194 159 162Q123 130 91 98Q77 84 69 75Q61 66 56 62Q112 164 164 255Q216 346 266 430ZM275 447Q421 695 575 852.5Q729 1010 897 1080Q966 1109 1039 1109Q1151 1109 1235 1049Q1319 992 1319 905Q1319 772 1111 651Q1013 594 908 553Q803 512 690 485Q601 465 516.5 454.5Q432 444 349 444Q329 444 310.5 445Q292 446 275 447ZM244 449Q241 449 232.5 450Q224 451 210 453Q188 456 188 473Q188 484 196 492Q216 515 245.5 533.5Q275 552 317 564Q299 536 280.5 507Q262 478 244 449Z"/></g><g transform="translate(6456,0)"><path d="M465 308Q470 315 466.5 317Q463 319 458 312Q446 301 424.5 290Q403 279 382 277Q366 275 343.5 274Q321 273 295 272.5Q269 272 240 272Q212 272 185 272Q235 280 274 299Q313 318 328 346Q337 361 335.5 379Q334 397 325.5 411.5Q317 426 302 433.5Q287 441 268 435Q233 421 189.5 386.5Q146 352 106.5 304.5Q67 257 39.5 202Q12 147 9 92Q8 72 18 54.5Q28 37 43 24Q58 11 76 4.5Q94 -2 109 1Q127 4 146.5 11.5Q166 19 184 28Q202 37 217 46.5Q232 56 243 64Q251 69 247 72.5Q243 76 235 71Q208 56 170.5 42Q133 28 100 23Q87 22 74.5 24.5Q62 27 52.5 34.5Q43 42 37.5 56Q32 70 33 92Q34 116 42 138.5Q50 161 61 182Q72 203 84.5 221.5Q97 240 108 255Q138 255 178 255Q218 255 258 256Q298 257 331.5 258Q365 259 382 262Q410 266 432.5 281.5Q455 297 465 308ZM304 355Q292 337 271.5 322Q251 307 226 295.5Q201 284 173 278Q145 272 119 272Q153 309 191 343.5Q229 378 266 399Q281 407 292.5 407.5Q304 408 310 401.5Q316 395 315 383Q314 371 304 355Z"/></g><g transform="translate(6740,0)"><path d="M-19 -13Q-6 -5 4 -0.5Q14 4 22 7Q30 11 30 14Q146 204 294 286Q328 304 348 295Q351 293 356 295.5Q361 298 365.5 302.5Q370 307 373.5 312.5Q377 318 377 321Q377 322 376 323Q361 330 330 329Q294 314 230 262Q168 212 129 165Q126 161 117 157Q106 153 106 158Q106 162 109 168Q120 190 142.5 222.5Q165 255 197 299Q202 304 198 310Q196 315 190 315Q187 315 186 313Q123 275 111 271Q110 268 111 264Q114 255 114 253Q114 243 108 228Q73 147 -24 -3Q-27 -8 -25 -13Q-24 -19 -19 -13Z"/></g><g transform="translate(7023,0)"><path d="M465 308Q470 315 466.5 317Q463 319 458 312Q446 301 424.5 290Q403 279 382 277Q366 275 343.5 274Q321 273 295 272.5Q269 272 240 272Q212 272 185 272Q235 280 274 299Q313 318 328 346Q337 361 335.5 379Q334 397 325.5 411.5Q317 426 302 433.5Q287 441 268 435Q233 421 189.5 386.5Q146 352 106.5 304.5Q67 257 39.5 202Q12 147 9 92Q8 72 18 54.5Q28 37 43 24Q58 11 76 4.5Q94 -2 109 1Q127 4 146.5 11.5Q166 19 184 28Q202 37 217 46.5Q232 56 243 64Q251 69 247 72.5Q243 76 235 71Q208 56 170.5 42Q133 28 100 23Q87 22 74.5 24.5Q62 27 52.5 34.5Q43 42 37.5 56Q32 70 33 92Q34 116 42 138.5Q50 161 61 182Q72 203 84.5 221.5Q97 240 108 255Q138 255 178 255Q218 255 258 256Q298 257 331.5 258Q365 259 382 262Q410 266 432.5 281.5Q455 297 465 308ZM304 355Q292 337 271.5 322Q251 307 226 295.5Q201 284 173 278Q145 272 119 272Q153 309 191 343.5Q229 378 266 399Q281 407 292.5 407.5Q304 408 310 401.5Q316 395 315 383Q314 371 304 355Z"/></g></g></svg>